{
  "accessors": [
    {
      "bufferView": 2,
      "componentType": 5126,
      "count": 65532,
      "max": [
        3.7359960079193115,
        20.019582748413086,
        6.9817719459533691
      ],
      "min": [
        -4.5034661293029785,
        8.4816131591796875,
        -8.2233238220214844
      ],
      "type": "VEC3"
    },
    {
      "bufferView": 2,
      "byteOffset": 786384,
      "componentType": 5126,
      "count": 65532,
      "max": [
        0.99943798780441284,
        0.99680501222610474,
        0.99999523162841797
      ],
      "min": [
        -0.99998974800109863,
        -1,
        -0.99999421834945679
      ],
      "type": "VEC3"
    },
    {
      "bufferView": 3,
      "componentType": 5126,
      "count": 65532,
      "max": [
        0.99999421834945679,
        0.99996066093444824,
        0.99999618530273438,
        1
      ],
      "min": [
        -0.99998414516448975,
        -0.99997121095657349,
        -0.99991732835769653,
        -1
      ],
      "type": "VEC4"
    },
    {
      "bufferView": 1,
      "componentType": 5126,
      "count": 65532,
      "max": [
        0.99998897314071655,
        0.99924397468566895
      ],
      "min": [
        1.4999999621068127e-05,
        2.4000000848900527e-05
      ],
      "type": "VEC2"
    },
    {
      "bufferView": 0,
      "componentType": 5125,
      "count": 335832,
      "max": [
        65531
      ],
      "min": [
        0
      ],
      "type": "SCALAR"
    },
    {
      "bufferView": 2,
      "byteOffset": 1572768,
      "componentType": 5126,
      "count": 57342,
      "max": [
        8.1289472579956055,
        19.594753265380859,
        7.8590598106384277
      ],
      "min": [
        -4.377223014831543,
        7.3937911987304688,
        -7.3455362319946289
      ],
      "type": "VEC3"
    },
    {
      "bufferView": 2,
      "byteOffset": 2260872,
      "componentType": 5126,
      "count": 57342,
      "max": [
        0.99773448705673218,
        0.99903911352157593,
        0.99999523162841797
      ],
      "min": [
        -0.99999886751174927,
        -1,
        -0.99992501735687256
      ],
      "type": "VEC3"
    },
    {
      "bufferView": 3,
      "byteOffset": 1048512,
      "componentType": 5126,
      "count": 57342,
      "max": [
        0.99986636638641357,
        0.99997258186340332,
        0.99995028972625732,
        1
      ],
      "min": [
        -0.99999243021011353,
        -0.99999815225601196,
        -0.99997931718826294,
        -1
      ],
      "type": "VEC4"
    },
    {
      "bufferView": 1,
      "byteOffset": 524256,
      "componentType": 5126,
      "count": 57342,
      "max": [
        0.9999849796295166,
        0.99926400184631348
      ],
      "min": [
        2.4000000848900527e-05,
        1.5999999959603883e-05
      ],
      "type": "VEC2"
    },
    {
      "bufferView": 0,
      "byteOffset": 1343328,
      "componentType": 5125,
      "count": 264168,
      "max": [
        57341
      ],
      "min": [
        0
      ],
      "type": "SCALAR"
    }
  ],
  "asset": {
    "extras": {
      "author": "Minzkraut (https://sketchfab.com/Minzkraut)",
      "license": "CC-BY-4.0 (http://creativecommons.org/licenses/by/4.0/)",
      "source": "https://sketchfab.com/3d-models/trashcan-f3c1e05626b8459a8981540c63cb23cb",
      "title": "Trashcan"
    },
    "generator": "Sketchfab-9.62.3",
    "version": "2.0"
  },
  "bufferViews": [
    {
      "buffer": 0,
      "byteLength": 2400000,
      "byteOffset": 0,
      "name": "floatBufferViews",
      "target": 34963
    },
    {
      "buffer": 0,
      "byteLength": 982992,
      "byteOffset": 2400000,
      "byteStride": 8,
      "name": "floatBufferViews",
      "target": 34962
    },
    {
      "buffer": 0,
      "byteLength": 2948976,
      "byteOffset": 3382992,
      "byteStride": 12,
      "name": "floatBufferViews",
      "target": 34962
    },
    {
      "buffer": 0,
      "byteLength": 1965984,
      "byteOffset": 6331968,
      "byteStride": 16,
      "name": "floatBufferViews",
      "target": 34962
    }
  ],
  "buffers": [
    {
      "byteLength": 8297952,
      "uri": "scene.bin"
    }
  ],
  "extensionsRequired": [
    "KHR_materials_pbrSpecularGlossiness"
  ],
  "extensionsUsed": [
    "KHR_materials_pbrSpecularGlossiness"
  ],
  "images": [
    {
      "uri": "textures/trashcan_diffuse.png"
    },
    {
      "uri": "textures/trashcan_normal.png"
    },
    {
      "uri": "textures/trashcan_occlusion.png"
    }
  ],
  "materials": [
    {
      "doubleSided": true,
      "extensions": {
        "KHR_materials_pbrSpecularGlossiness": {
          "diffuseFactor": [
            1,
            1,
            1,
            1
          ],
          "diffuseTexture": {
            "index": 0,
            "texCoord": 0
          },
          "glossinessFactor": 0,
          "specularFactor": [
            0,
            0,
            0
          ]
        }
      },
      "name": "trashcan",
      "normalTexture": {
        "index": 1,
        "scale": 1,
        "texCoord": 0
      },
      "occlusionTexture": {
        "index": 2,
        "strength": 1,
        "texCoord": 0
      }
    }
  ],
  "meshes": [
    {
      "primitives": [
        {
          "attributes": {
            "NORMAL": 1,
            "POSITION": 0,
            "TANGENT": 2,
            "TEXCOORD_0": 3
          },
          "indices": 4,
          "material": 0,
          "mode": 4
        }
      ]
    },
    {
      "primitives": [
        {
          "attributes": {
            "NORMAL": 6,
            "POSITION": 5,
            "TANGENT": 7,
            "TEXCOORD_0": 8
          },
          "indices": 9,
          "material": 0,
          "mode": 4
        }
      ]
    }
  ],
  "nodes": [
    {
      "children": [
        1
      ],
      "name": "RootNode (gltf orientation matrix)",
      "rotation": [
        -0.70710678118654746,
        -0,
        -0,
        0.70710678118654757
      ]
    },
    {
      "children": [
        2
      ],
      "matrix": [
        -0.14301344752311707,
        -0.65614861249923706,
        -0.74095624685287476,
        0,
        0.1838751882314682,
        0.71800333261489868,
        -0.67131298780441284,
        0,
        0.97249013185501099,
        -0.23225025832653046,
        0.017965316772460938,
        0,
        -0.27121073007583618,
        5.0123553276062012,
        10.365754127502441,
        1
      ],
      "name": "RootNode (model correction matrix)"
    },
    {
      "children": [
        3,
        4
      ],
      "name": "trashcan.obj.cleaner.materialmerger.gles"
    },
    {
      "mesh": 0,
      "name": ""
    },
    {
      "mesh": 1,
      "name": ""
    }
  ],
  "samplers": [
    {
      "magFilter": 9729,
      "minFilter": 9987,
      "wrapS": 10497,
      "wrapT": 10497
    }
  ],
  "scene": 0,
  "scenes": [
    {
      "name": "OSG_Scene",
      "nodes": [
        0
      ]
    }
  ],
  "textures": [
    {
      "sampler": 0,
      "source": 0
    },
    {
      "sampler": 0,
      "source": 1
    },
    {
      "sampler": 0,
      "source": 2
    }
  ]
}

